PathFileType	4	(X/Y/Z)	C:\Users\°ÂÌØÂü\Desktop\20201223\Trimmed_Trimmed_Trimmed_Trimmed_bx_n_0_501.trc
DataRate	CameraRate	NumFrames	NumMarkers	Units	OrigDataRate	OrigDataStartFrame	OrigNumFrames
50.00	50.00	       6	43	mm	50.00	1	       802
Frame#	Time	Top.Head			R.Acromium			L.Acromium			Sternum			R.ASIS			L.ASIS			V.Sacral			R.Thigh.Upper			R.Thigh.Front			R.Thigh.Rear			R.Knee.Lat			R.Knee.Med			R.Shank.Upper			R.Shank.Front			R.Shank.Rear			R.Ankle.Lat			R.Midfoot.Lat			R.Toe.Lat			R.Toe.Tip			R.Toe.Med			R.Ankle.Med			R.Midfoot.Sup			R.Heel			L.Thigh.Upper			L.Thigh.Front			L.Thigh.Rear			L.Knee.Lat			L.Knee.Med			L.Shank.Upper			L.Shank.Front			L.Shank.Rear			L.Ankle.Lat			L.Midfoot.Lat			L.Toe.Lat			L.Toe.Tip			L.Toe.Med			L.Ankle.Med			L.Midfoot.Sup			L.Heel			origin1 front left			origin2 front right			origin 3 back right			origin 4 back leftt			
		X1	Y1	Z1	X2	Y2	Z2	X3	Y3	Z3	X4	Y4	Z4	X5	Y5	Z5	X6	Y6	Z6	X7	Y7	Z7	X8	Y8	Z8	X9	Y9	Z9	X10	Y10	Z10	X11	Y11	Z11	X12	Y12	Z12	X13	Y13	Z13	X14	Y14	Z14	X15	Y15	Z15	X16	Y16	Z16	X17	Y17	Z17	X18	Y18	Z18	X19	Y19	Z19	X20	Y20	Z20	X21	Y21	Z21	X22	Y22	Z22	X23	Y23	Z23	X24	Y24	Z24	X25	Y25	Z25	X26	Y26	Z26	X27	Y27	Z27	X28	Y28	Z28	X29	Y29	Z29	X30	Y30	Z30	X31	Y31	Z31	X32	Y32	Z32	X33	Y33	Z33	X34	Y34	Z34	X35	Y35	Z35	X36	Y36	Z36	X37	Y37	Z37	X38	Y38	Z38	X39	Y39	Z39	X40	Y40	Z40	X41	Y41	Z41	X42	Y42	Z42	X43	Y43	Z43	

1	0.000	-658.69324	267.04889	1839.60156	-653.01611	83.16718	1531.95020	-649.98425	448.96222	1525.75842	-549.53955	263.41431	1360.03687	-556.48438	139.47664	1042.92224	-526.32959	358.14752	1041.84778	-744.11682	264.61200	1060.59448	-638.13611	86.06575	836.06329	-547.56805	132.97878	803.51953	-652.41510	101.72938	719.74652	-669.02222	121.71525	600.16699	-640.49170	226.98265	557.72125	-694.79889	121.87627	538.45380	-615.10803	169.20724	525.13782	-703.28113	113.62077	487.73224	-690.83746	140.16861	213.19128	-616.47394	78.96048	167.66475	-570.95239	57.21182	164.56131	-494.71860	96.43253	160.83469	-536.07019	148.73692	162.78795	-640.80664	216.85141	219.65404	-597.97046	189.20790	170.06007	-725.52136	205.67751	168.83192	-611.87213	447.67514	857.46918	-533.75000	391.97766	819.57275	-637.30725	437.32562	740.88574	-655.86182	418.65421	604.92017	-644.43341	308.82776	566.93347	-672.36768	421.87558	558.24438	-613.84576	366.18237	534.84375	-723.30750	425.70236	494.15570	-676.16083	420.95020	214.87746	-579.22272	465.17831	165.29697	-541.31104	475.67651	159.03186	-484.59625	421.48792	167.85997	-525.13428	383.04596	177.53433	-647.44098	328.80856	208.92778	-597.78760	346.83978	169.50209	-734.56543	354.64639	161.98416	-443.83646	448.61948	146.42397	-450.43323	75.14240	143.25119	-806.34363	82.24464	141.40399	-800.10773	456.36954	144.60571	
2	0.020	-658.23029	266.94189	1839.52319	-652.66998	83.15508	1531.94202	-649.79230	448.96939	1525.79651	-549.25793	263.52472	1359.99683	-556.20117	139.58812	1042.86951	-525.90948	358.29898	1041.76465	-743.79449	264.65695	1060.63660	-637.95502	86.10059	836.04388	-547.37012	133.10820	803.52338	-652.17004	101.88746	719.71545	-668.97156	121.74240	600.18011	-640.38617	226.96141	557.72644	-694.73505	121.91032	538.47589	-615.05164	169.28474	525.03906	-703.16705	113.64194	487.74149	-690.82727	140.18599	213.20572	-616.43182	78.95522	167.69321	-570.94757	57.15903	164.59975	-494.69986	96.44261	160.81999	-536.07745	148.75354	162.77934	-640.72058	216.87840	219.64066	-597.97772	189.21188	170.05486	-725.52673	205.65312	168.82108	-611.73138	447.83801	857.55389	-533.54968	392.02917	819.50116	-637.12317	437.43903	740.90198	-655.82422	418.67517	604.92059	-644.29388	308.76907	566.96045	-672.21521	421.95099	558.26794	-613.82104	366.31653	534.69800	-723.26306	425.78894	494.23270	-676.15088	420.93469	214.88623	-579.18915	465.17679	165.32115	-541.31415	475.72171	159.08821	-484.54083	421.48062	167.88663	-525.11664	383.03732	177.52930	-647.42810	328.80133	208.90559	-597.76904	346.82819	169.51624	-734.56116	354.65759	161.97353	-443.85791	448.61386	146.48987	-450.43237	75.13380	143.24246	-806.32892	82.24709	141.41243	-800.10358	456.36905	144.62827	
3	0.040	-657.77319	266.84363	1839.45007	-652.32642	83.15028	1531.93494	-649.59296	448.98294	1525.83398	-548.97900	263.63315	1359.95398	-555.91351	139.70007	1042.81250	-525.50635	358.44254	1041.68274	-743.47870	264.70471	1060.67407	-637.76404	86.14352	836.02179	-547.17249	133.23535	803.52490	-651.92987	102.03841	719.68896	-668.91394	121.77106	600.19318	-640.27966	226.94493	557.72906	-694.66632	121.94512	538.49719	-614.99121	169.36252	524.94696	-703.05072	113.66579	487.74832	-690.81665	140.20293	213.21994	-616.39496	78.95076	167.71783	-570.94250	57.11025	164.63614	-494.68146	96.45258	160.80482	-536.08307	148.76904	162.77165	-640.64075	216.90747	219.62584	-597.98431	189.21547	170.05019	-725.53186	205.63080	168.81055	-611.59045	447.99545	857.63306	-533.34930	392.08475	819.43414	-636.94366	437.54907	740.91626	-655.78119	418.69775	604.91736	-644.15607	308.72336	566.98914	-672.06598	422.01993	558.28589	-613.79346	366.44791	534.56543	-723.21692	425.87381	494.30649	-676.14154	420.91956	214.89517	-579.16083	465.17609	165.34026	-541.31818	475.76376	159.13968	-484.48993	421.47311	167.90846	-525.09961	383.02902	177.52426	-647.41528	328.79410	208.88347	-597.75171	346.81747	169.52840	-734.55579	354.66849	161.96370	-443.87845	448.60919	146.55072	-450.43198	75.12676	143.23363	-806.31519	82.24824	141.42087	-800.09869	456.36761	144.64865	
4	0.060	-657.32806	266.76242	1839.38672	-651.98779	83.15924	1531.92993	-649.38043	449.00836	1525.87000	-548.70496	263.73813	1359.90637	-555.61829	139.81265	1042.74792	-525.13440	358.57193	1041.60352	-743.17511	264.75797	1060.70313	-637.55609	86.20105	835.99500	-546.97583	133.35851	803.52197	-651.69922	102.17584	719.67053	-668.84338	121.80304	600.20563	-640.17181	226.93718	557.72711	-694.58881	121.98149	538.51740	-614.92346	169.44064	524.86719	-702.93066	113.69440	487.75089	-690.80530	140.21895	213.23370	-616.36761	78.94778	167.73561	-570.93713	57.06883	164.66869	-494.66391	96.46224	160.78900	-536.08582	148.78236	162.76572	-640.57239	216.94011	219.60849	-597.98962	189.21829	170.04660	-725.53674	205.61226	168.80060	-611.44922	448.14243	857.70172	-533.14923	392.14764	819.37561	-636.77222	437.65323	740.92706	-655.72827	418.72339	604.90729	-644.02142	308.70105	567.02124	-671.92297	422.07706	558.29364	-613.76025	366.57419	534.45752	-723.16766	425.95560	494.37421	-676.13348	420.90530	214.90434	-579.14185	465.17682	165.35022	-541.32391	475.79996	159.18214	-484.44696	421.46518	167.92192	-525.08356	383.02112	177.51909	-647.40253	328.78693	208.86145	-597.73645	346.80826	169.53705	-734.54852	354.67874	161.95534	-443.89734	448.60632	146.60239	-450.43246	75.12255	143.22472	-806.30334	82.24705	141.42923	-800.09259	456.36453	144.66510	
5	0.080	-656.90143	266.70563	1839.33679	-651.65576	83.18686	1531.92712	-649.15186	449.04971	1525.90369	-548.43744	263.83905	1359.85291	-555.31445	139.92543	1042.67322	-524.80304	358.68362	1041.52856	-742.88831	264.81924	1060.72205	-637.32867	86.27684	835.96252	-546.78162	133.47676	803.51312	-651.48212	102.29479	719.66229	-668.75610	121.84055	600.21637	-640.06342	226.94081	557.71918	-694.49988	122.02024	538.53625	-614.84674	169.51886	524.80371	-702.80682	113.72887	487.74841	-690.79297	140.23367	213.24683	-616.35211	78.94672	167.74507	-570.93115	57.03701	164.69600	-494.64767	96.47125	160.77278	-536.08490	148.79260	162.76227	-640.51892	216.97687	219.58812	-597.99329	189.22020	170.04437	-725.54120	205.59879	168.79158	-611.30780	448.27454	857.75568	-532.95056	392.21933	819.32770	-636.61072	437.75037	740.93365	-655.66272	418.75333	604.88849	-643.89136	308.70810	567.05823	-671.78851	422.11902	558.28839	-613.71869	366.69418	534.38239	-723.11420	426.03333	494.43335	-676.12720	420.89276	214.91360	-579.13434	465.17953	165.34879	-541.33148	475.82855	159.21289	-484.41357	421.45685	167.92580	-525.06891	383.01303	177.51341	-647.38983	328.77982	208.83958	-597.72375	346.80081	169.54141	-734.53900	354.68802	161.94902	-443.91382	448.60583	146.64241	-450.43427	75.12190	143.21597	-806.29401	82.24290	141.43727	-800.08472	456.35971	144.67670	
6	0.100	-656.49963	266.67911	1839.30237	-651.33154	83.23591	1531.92651	-648.90796	449.10919	1525.93408	-548.17731	263.93634	1359.79419	-555.00366	140.03737	1042.58728	-524.51581	358.77756	1041.45984	-742.62122	264.89053	1060.73169	-637.08478	86.37106	835.92474	-546.59198	133.59009	803.49786	-651.28210	102.39212	719.66443	-668.65088	121.88604	600.22375	-639.95630	226.95676	557.70483	-694.39899	122.06226	538.55420	-614.76117	169.59656	524.75812	-702.68073	113.76904	487.74124	-690.77954	140.24681	213.25914	-616.34857	78.94765	167.74646	-570.92444	57.01567	164.71722	-494.63336	96.47913	160.75687	-536.08038	148.79907	162.76181	-640.48187	217.01712	219.56497	-597.99506	189.22118	170.04361	-725.54535	205.59100	168.78377	-611.16656	448.38846	857.79193	-532.75507	392.29947	819.29071	-636.45911	437.84100	740.93585	-655.58405	418.78848	604.86053	-643.76703	308.74503	567.10126	-671.66431	422.14499	558.26953	-613.66669	366.80762	534.34418	-723.05597	426.10660	494.48212	-676.12292	420.88309	214.92267	-579.13800	465.18448	165.33591	-541.34039	475.84888	159.23087	-484.38928	421.44833	167.92139	-525.05597	383.00372	177.50661	-647.37738	328.77280	208.81795	-597.71356	346.79498	169.54164	-734.52716	354.69620	161.94504	-443.92743	448.60803	146.67030	-450.43765	75.12491	143.20786	-806.28741	82.23567	141.44456	-800.07471	456.35361	144.68350	
